
<svg version="1.0" xmlns="http://www.w3.org/2000/svg"
width="512.000000pt" height="512.000000pt" viewBox="0 0 512.000000 512.000000"
preserveAspectRatio="xMidYMid meet">

<g transform="translate(0.000000,512.000000) scale(0.100000,-0.100000)"
fill="#000000" stroke="none">
<path d="M4380 5010 c-22 -22 -27 -39 -34 -135 -19 -241 -136 -415 -290 -432
-99 -11 -126 -30 -126 -91 0 -52 29 -77 100 -86 120 -16 197 -73 251 -190 38
-82 59 -164 66 -266 6 -75 10 -88 34 -112 35 -36 81 -37 113 -5 19 20 25 39
31 108 24 279 132 440 310 464 75 10 84 14 100 45 21 40 19 65 -7 95 -18 21
-37 28 -91 35 -37 6 -85 19 -106 29 -110 56 -185 217 -207 439 -9 93 -29 122
-85 122 -25 0 -46 -7 -59 -20z m86 -507 c15 -27 50 -72 77 -100 l49 -53 -47
-47 c-26 -27 -61 -72 -77 -101 l-30 -53 -36 60 c-19 33 -54 79 -78 102 l-42
42 48 48 c27 27 61 71 77 99 15 27 29 50 30 50 0 0 14 -21 29 -47z"/>
<path d="M1808 4753 c-9 -10 -23 -47 -32 -83 -28 -112 -81 -207 -161 -287 -95
-95 -184 -139 -372 -183 -402 -93 -572 -161 -750 -297 -267 -203 -461 -579
-489 -948 -7 -80 -6 -87 16 -110 l23 -25 384 0 c366 0 384 1 402 19 11 11 23
37 26 58 31 199 119 333 253 384 31 12 164 48 296 80 131 33 284 77 340 99
444 174 773 581 875 1082 34 166 34 171 11 201 l-21 27 -393 0 c-362 0 -394
-1 -408 -17z m286 -180 c-63 -260 -246 -488 -490 -609 -73 -36 -140 -57 -345
-108 -271 -67 -375 -103 -478 -163 -208 -122 -379 -389 -426 -665 l-6 -38 -79
0 c-91 0 -87 -7 -66 102 50 263 206 527 397 674 138 106 282 165 587 240 267
66 328 87 424 150 144 93 249 229 302 392 l18 52 84 0 84 0 -6 -27z"/>
<path d="M3526 4497 c-19 -19 -24 -39 -30 -107 -10 -108 -37 -213 -75 -287
-50 -101 -149 -173 -235 -173 -46 0 -92 -25 -105 -59 -26 -61 26 -121 105
-121 86 0 185 -72 235 -173 38 -74 65 -179 75 -287 6 -68 11 -88 30 -107 23
-23 65 -30 99 -17 24 10 45 58 45 106 0 72 36 222 70 293 51 107 145 184 225
185 17 0 47 5 68 11 49 13 73 60 56 108 -14 39 -31 49 -114 60 -117 17 -196
86 -250 220 -26 63 -55 202 -55 263 0 44 -21 93 -45 102 -34 13 -76 6 -99 -17z
m164 -607 l49 -50 -50 -51 c-27 -28 -63 -74 -79 -101 l-28 -51 -22 44 c-13 24
-47 69 -78 101 l-55 58 55 58 c31 32 66 78 78 102 l22 43 30 -52 c17 -28 52
-74 78 -101z"/>
<path d="M2586 3535 c-25 -9 -72 -46 -129 -102 -153 -151 -162 -210 -52 -352
25 -33 45 -63 45 -66 0 -4 -18 -28 -41 -53 -64 -73 -92 -138 -104 -243 l-6
-57 -87 -53 c-99 -60 -218 -175 -272 -262 -31 -50 -43 -60 -110 -91 -257 -119
-548 -38 -917 256 -147 118 -235 138 -601 138 -239 0 -279 -7 -302 -51 -32
-60 22 -199 100 -255 78 -57 235 -151 393 -238 343 -186 540 -331 872 -636
163 -150 289 -255 418 -349 l83 -60 12 -60 c17 -96 67 -187 143 -262 l67 -66
-31 -16 c-120 -58 -212 -235 -183 -351 22 -89 167 -160 408 -198 133 -21 616
-17 743 6 193 35 304 84 353 156 21 31 23 44 20 106 -8 116 -84 232 -185 282
l-32 15 64 63 c66 66 128 172 141 240 6 32 14 39 88 76 75 37 154 88 216 138
18 14 57 25 130 36 542 80 953 292 1153 597 160 243 179 476 61 717 -40 80
-61 109 -138 185 -105 104 -213 172 -338 216 -266 91 -518 50 -787 -128 -100
-67 -293 -250 -382 -363 l-61 -78 -47 56 c-26 32 -65 72 -87 91 -46 41 -184
131 -200 131 -6 0 -14 28 -18 66 -9 88 -39 164 -89 225 -23 29 -46 57 -51 64
-6 8 6 32 38 73 112 146 103 204 -55 358 -116 113 -157 130 -243 99z m14 -250
c19 -22 14 -81 -8 -110 l-20 -25 -32 40 -33 41 34 35 c37 38 42 40 59 19z
m106 -404 c49 -23 93 -76 101 -124 l5 -35 -123 5 c-69 3 -143 0 -168 -5 l-43
-10 5 39 c9 71 94 149 162 149 11 0 39 -9 61 -19z m1771 -92 c211 -65 383
-219 444 -399 29 -85 31 -220 5 -300 -121 -363 -554 -622 -1174 -701 -65 -8
-102 -18 -122 -33 -15 -11 -57 -43 -92 -70 -302 -234 -982 -313 -1396 -164
-140 51 -397 236 -637 460 -363 337 -551 475 -942 688 -81 45 -188 107 -238
138 l-90 57 185 3 c254 4 273 -1 440 -127 275 -207 472 -294 696 -308 134 -9
283 21 366 73 l37 24 706 2 707 3 26 31 c15 17 55 69 89 116 33 46 105 130
158 186 282 296 561 404 832 321z m-1632 -263 c44 -14 107 -41 140 -61 57 -34
175 -140 175 -157 0 -4 -232 -8 -515 -8 -307 0 -515 4 -515 9 0 14 86 97 137
132 166 115 385 147 578 85z m-600 -1611 c154 -34 328 -46 510 -35 140 9 338
37 412 59 31 9 32 8 22 -10 -5 -11 -35 -44 -66 -75 -183 -180 -576 -219 -843
-84 -63 32 -155 114 -180 159 -12 22 -11 24 11 18 13 -4 74 -18 134 -32z"/>
<path d="M4240 2639 c-194 -27 -421 -195 -612 -452 -77 -104 -77 -121 2 -203
80 -83 118 -165 130 -275 7 -72 11 -86 35 -106 14 -13 38 -23 53 -23 47 1 198
38 321 79 239 80 407 186 517 327 67 85 88 145 89 244 0 76 -3 92 -33 152 -39
80 -111 149 -208 200 -104 54 -193 72 -294 57z m186 -191 c101 -37 183 -135
184 -219 0 -76 -85 -193 -196 -269 -76 -53 -243 -127 -361 -161 -62 -18 -115
-31 -118 -28 -3 4 -12 32 -20 64 -19 71 -65 160 -112 215 l-35 41 49 57 c78
92 183 190 254 238 140 93 229 109 355 62z"/>
</g>
</svg>
